# xmcd
#
# Track frame offsets:
#	150
#	18858
#	31860
#	48995
#	66929
#	91593
#	113136
#	135249
#	152471
#	169669
#
# Disc length: 2496 seconds
#
# Revision: 0
# Processed by: cddbd v1.5.2PL0 Copyright (c) Steve Scherf et al.
# Submitted via: EZCDAudioConverter 1.3.3.1
#
DISCID=6809be0a
DTITLE=Joe Cocker - Live in America CD1
DYEAR=2009
DGENRE=Pop
TTITLE0=Feelin' Alright
TTITLE1=I Can't Say No
TTITLE2=Put out the Light
TTITLE3=Look What You've Done
TTITLE4=Whiter Shade of Pale
TTITLE5=Sweet Lil' Woman
TTITLE6=I Don't Wanna Live Without Lovin' You
TTITLE7=Just Like Always
TTITLE8=Shocked
TTITLE9=Seven Days
EXTD=
EXTT0=
EXTT1=
EXTT2=
EXTT3=
EXTT4=
EXTT5=
EXTT6=
EXTT7=
EXTT8=
EXTT9=
PLAYORDER=
